<mxfile host="app.diagrams.net" modified="2021-03-23T18:26:55.665Z" agent="5.0 (Windows NT 10.0; Win64; x64) AppleWebKit/537.36 (KHTML, like Gecko) Chrome/89.0.4389.90 Safari/537.36" etag="qC8Yu1ZnMUZzK_D7kOa1" version="14.4.9" type="github">
  <diagram id="C5RBs43oDa-KdzZeNtuy" name="Page-1">
    <mxGraphModel dx="1038" dy="580" grid="1" gridSize="10" guides="1" tooltips="1" connect="1" arrows="1" fold="1" page="1" pageScale="1" pageWidth="827" pageHeight="1169" math="0" shadow="0">
      <root>
        <mxCell id="WIyWlLk6GJQsqaUBKTNV-0" />
        <mxCell id="WIyWlLk6GJQsqaUBKTNV-1" parent="WIyWlLk6GJQsqaUBKTNV-0" />
        <mxCell id="D1foOzfLuy6gTg5swWMO-0" value="Player" style="html=1;" parent="WIyWlLk6GJQsqaUBKTNV-1" vertex="1">
          <mxGeometry x="360" y="320" width="120" height="50" as="geometry" />
        </mxCell>
        <mxCell id="D1foOzfLuy6gTg5swWMO-1" value="TurnOrdered" style="html=1;" parent="WIyWlLk6GJQsqaUBKTNV-1" vertex="1">
          <mxGeometry x="120" y="190" width="120" height="50" as="geometry" />
        </mxCell>
        <mxCell id="D1foOzfLuy6gTg5swWMO-2" value="IGame" style="html=1;" parent="WIyWlLk6GJQsqaUBKTNV-1" vertex="1">
          <mxGeometry x="600" y="190" width="120" height="50" as="geometry" />
        </mxCell>
        <mxCell id="D1foOzfLuy6gTg5swWMO-3" value="Board" style="html=1;" parent="WIyWlLk6GJQsqaUBKTNV-1" vertex="1">
          <mxGeometry x="360" y="190" width="120" height="50" as="geometry" />
        </mxCell>
        <mxCell id="D1foOzfLuy6gTg5swWMO-4" value="Camouflage" style="html=1;" parent="WIyWlLk6GJQsqaUBKTNV-1" vertex="1">
          <mxGeometry x="600" y="440" width="120" height="50" as="geometry" />
        </mxCell>
        <mxCell id="D1foOzfLuy6gTg5swWMO-5" value="PlayerColour" style="html=1;" parent="WIyWlLk6GJQsqaUBKTNV-1" vertex="1">
          <mxGeometry x="360" y="440" width="120" height="50" as="geometry" />
        </mxCell>
        <mxCell id="D1foOzfLuy6gTg5swWMO-6" value="Minefield" style="html=1;" parent="WIyWlLk6GJQsqaUBKTNV-1" vertex="1">
          <mxGeometry x="120" y="320" width="120" height="50" as="geometry" />
        </mxCell>
        <mxCell id="D1foOzfLuy6gTg5swWMO-7" value="GamePlayerChangeEvent" style="html=1;" parent="WIyWlLk6GJQsqaUBKTNV-1" vertex="1">
          <mxGeometry x="600" y="320" width="160" height="50" as="geometry" />
        </mxCell>
        <mxCell id="D1foOzfLuy6gTg5swWMO-8" value="" style="endArrow=open;endFill=1;endSize=12;html=1;exitX=1;exitY=0.5;exitDx=0;exitDy=0;entryX=0;entryY=0.5;entryDx=0;entryDy=0;" parent="WIyWlLk6GJQsqaUBKTNV-1" source="D1foOzfLuy6gTg5swWMO-0" target="D1foOzfLuy6gTg5swWMO-7" edge="1">
          <mxGeometry width="160" relative="1" as="geometry">
            <mxPoint x="330" y="300" as="sourcePoint" />
            <mxPoint x="490" y="300" as="targetPoint" />
          </mxGeometry>
        </mxCell>
        <mxCell id="D1foOzfLuy6gTg5swWMO-9" value="Create" style="edgeLabel;html=1;align=center;verticalAlign=middle;resizable=0;points=[];" parent="D1foOzfLuy6gTg5swWMO-8" vertex="1" connectable="0">
          <mxGeometry x="0.3508" y="-2" relative="1" as="geometry">
            <mxPoint x="-28" as="offset" />
          </mxGeometry>
        </mxCell>
        <mxCell id="D1foOzfLuy6gTg5swWMO-10" value="Coords" style="html=1;" parent="WIyWlLk6GJQsqaUBKTNV-1" vertex="1">
          <mxGeometry x="120" y="440" width="120" height="50" as="geometry" />
        </mxCell>
        <mxCell id="D1foOzfLuy6gTg5swWMO-11" value="EntitySelector" style="html=1;" parent="WIyWlLk6GJQsqaUBKTNV-1" vertex="1">
          <mxGeometry x="520" y="110" width="120" height="50" as="geometry" />
        </mxCell>
        <mxCell id="D1foOzfLuy6gTg5swWMO-16" value="" style="endArrow=open;endFill=1;endSize=12;html=1;exitX=1;exitY=1;exitDx=0;exitDy=0;entryX=0;entryY=0;entryDx=0;entryDy=0;" parent="WIyWlLk6GJQsqaUBKTNV-1" source="D1foOzfLuy6gTg5swWMO-0" target="D1foOzfLuy6gTg5swWMO-4" edge="1">
          <mxGeometry width="160" relative="1" as="geometry">
            <mxPoint x="414" y="400" as="sourcePoint" />
            <mxPoint x="534" y="400" as="targetPoint" />
          </mxGeometry>
        </mxCell>
        <mxCell id="D1foOzfLuy6gTg5swWMO-17" value="Create" style="edgeLabel;html=1;align=center;verticalAlign=middle;resizable=0;points=[];" parent="D1foOzfLuy6gTg5swWMO-16" vertex="1" connectable="0">
          <mxGeometry x="0.3508" y="-2" relative="1" as="geometry">
            <mxPoint x="-19.939999999999998" y="-8.93" as="offset" />
          </mxGeometry>
        </mxCell>
        <mxCell id="D1foOzfLuy6gTg5swWMO-18" value="" style="endArrow=diamondThin;endFill=0;endSize=24;html=1;entryX=0.5;entryY=1;entryDx=0;entryDy=0;exitX=0.5;exitY=0;exitDx=0;exitDy=0;" parent="WIyWlLk6GJQsqaUBKTNV-1" source="D1foOzfLuy6gTg5swWMO-5" target="D1foOzfLuy6gTg5swWMO-0" edge="1">
          <mxGeometry width="160" relative="1" as="geometry">
            <mxPoint x="220" y="400" as="sourcePoint" />
            <mxPoint x="380" y="400" as="targetPoint" />
          </mxGeometry>
        </mxCell>
        <mxCell id="D1foOzfLuy6gTg5swWMO-19" value="" style="endArrow=diamondThin;endFill=0;endSize=24;html=1;entryX=0.5;entryY=0;entryDx=0;entryDy=0;exitX=0.5;exitY=1;exitDx=0;exitDy=0;" parent="WIyWlLk6GJQsqaUBKTNV-1" source="D1foOzfLuy6gTg5swWMO-3" target="D1foOzfLuy6gTg5swWMO-0" edge="1">
          <mxGeometry width="160" relative="1" as="geometry">
            <mxPoint x="330" y="300" as="sourcePoint" />
            <mxPoint x="490" y="300" as="targetPoint" />
          </mxGeometry>
        </mxCell>
        <mxCell id="D1foOzfLuy6gTg5swWMO-20" value="" style="endArrow=diamondThin;endFill=0;endSize=24;html=1;entryX=0;entryY=1;entryDx=0;entryDy=0;exitX=1;exitY=0;exitDx=0;exitDy=0;" parent="WIyWlLk6GJQsqaUBKTNV-1" source="D1foOzfLuy6gTg5swWMO-10" target="D1foOzfLuy6gTg5swWMO-0" edge="1">
          <mxGeometry width="160" relative="1" as="geometry">
            <mxPoint x="330" y="300" as="sourcePoint" />
            <mxPoint x="490" y="300" as="targetPoint" />
          </mxGeometry>
        </mxCell>
        <mxCell id="D1foOzfLuy6gTg5swWMO-21" value="Extends" style="endArrow=block;endSize=16;endFill=0;html=1;entryX=1;entryY=1;entryDx=0;entryDy=0;exitX=0;exitY=0;exitDx=0;exitDy=0;" parent="WIyWlLk6GJQsqaUBKTNV-1" source="D1foOzfLuy6gTg5swWMO-0" target="D1foOzfLuy6gTg5swWMO-1" edge="1">
          <mxGeometry width="160" relative="1" as="geometry">
            <mxPoint x="180" y="310" as="sourcePoint" />
            <mxPoint x="340" y="310" as="targetPoint" />
          </mxGeometry>
        </mxCell>
        <mxCell id="D1foOzfLuy6gTg5swWMO-22" value="" style="endArrow=diamondThin;endFill=0;endSize=24;html=1;entryX=0;entryY=0.5;entryDx=0;entryDy=0;exitX=1;exitY=0.5;exitDx=0;exitDy=0;" parent="WIyWlLk6GJQsqaUBKTNV-1" source="D1foOzfLuy6gTg5swWMO-6" target="D1foOzfLuy6gTg5swWMO-0" edge="1">
          <mxGeometry width="160" relative="1" as="geometry">
            <mxPoint x="330" y="300" as="sourcePoint" />
            <mxPoint x="490" y="300" as="targetPoint" />
          </mxGeometry>
        </mxCell>
        <mxCell id="D1foOzfLuy6gTg5swWMO-23" value="" style="endArrow=open;endFill=1;endSize=12;html=1;exitX=0.75;exitY=0;exitDx=0;exitDy=0;entryX=0.5;entryY=1;entryDx=0;entryDy=0;" parent="WIyWlLk6GJQsqaUBKTNV-1" source="D1foOzfLuy6gTg5swWMO-0" target="D1foOzfLuy6gTg5swWMO-11" edge="1">
          <mxGeometry width="160" relative="1" as="geometry">
            <mxPoint x="490" y="380" as="sourcePoint" />
            <mxPoint x="610" y="450" as="targetPoint" />
          </mxGeometry>
        </mxCell>
        <mxCell id="D1foOzfLuy6gTg5swWMO-24" value="Create" style="edgeLabel;html=1;align=center;verticalAlign=middle;resizable=0;points=[];" parent="D1foOzfLuy6gTg5swWMO-23" vertex="1" connectable="0">
          <mxGeometry x="0.3508" y="-2" relative="1" as="geometry">
            <mxPoint x="-19.939999999999998" y="-8.93" as="offset" />
          </mxGeometry>
        </mxCell>
        <mxCell id="D1foOzfLuy6gTg5swWMO-25" value="" style="endArrow=block;startArrow=block;endFill=1;startFill=1;html=1;entryX=0;entryY=1;entryDx=0;entryDy=0;exitX=1;exitY=0;exitDx=0;exitDy=0;" parent="WIyWlLk6GJQsqaUBKTNV-1" source="D1foOzfLuy6gTg5swWMO-0" target="D1foOzfLuy6gTg5swWMO-2" edge="1">
          <mxGeometry width="160" relative="1" as="geometry">
            <mxPoint x="330" y="300" as="sourcePoint" />
            <mxPoint x="490" y="300" as="targetPoint" />
          </mxGeometry>
        </mxCell>
        <mxCell id="u1DuHQqWwpxJ652BJrzJ-0" value="IPlayer" style="html=1;" vertex="1" parent="WIyWlLk6GJQsqaUBKTNV-1">
          <mxGeometry x="230" y="110" width="120" height="50" as="geometry" />
        </mxCell>
        <mxCell id="u1DuHQqWwpxJ652BJrzJ-1" value="" style="endArrow=block;dashed=1;endFill=0;endSize=12;html=1;entryX=0.5;entryY=1;entryDx=0;entryDy=0;exitX=0.25;exitY=0;exitDx=0;exitDy=0;" edge="1" parent="WIyWlLk6GJQsqaUBKTNV-1" source="D1foOzfLuy6gTg5swWMO-0" target="u1DuHQqWwpxJ652BJrzJ-0">
          <mxGeometry width="160" relative="1" as="geometry">
            <mxPoint x="330" y="300" as="sourcePoint" />
            <mxPoint x="490" y="300" as="targetPoint" />
          </mxGeometry>
        </mxCell>
        <mxCell id="u1DuHQqWwpxJ652BJrzJ-2" value="Implements" style="edgeLabel;html=1;align=center;verticalAlign=middle;resizable=0;points=[];" vertex="1" connectable="0" parent="u1DuHQqWwpxJ652BJrzJ-1">
          <mxGeometry x="-0.1115" y="1" relative="1" as="geometry">
            <mxPoint as="offset" />
          </mxGeometry>
        </mxCell>
      </root>
    </mxGraphModel>
  </diagram>
</mxfile>
